<svg xmlns="http://www.w3.org/2000/svg" xml:space="preserve" xmlns:xlink="http://www.w3.org/1999/xlink" style="max-width: 100%;height: auto;" width="1051.25" height="1314.0625" viewBox="0 0 1051.25 1314.0625">
<rect width="973.28229166667" height="973.28229166667" fill="#ffffff" x="38.802083333333" y="301.61458333333"  />
<g fill="#000000" transform="scale(43.802083333333)"> <path d="M22.7,6L1.3,6C0.6,6,0,6.6,0,7.3l0,21.3C0,29.4,0.6,30,1.3,30l21.4,0c0.7,0,1.3-0.6,1.3-1.3l0-21.3 C24,6.6,23.4,6,22.7,6z M23,28c0,0.6-0.5,1-1,1L2,29c-0.6,0-1-0.5-1-1V8c0-0.6,0.5-1,1-1l20,0c0.6,0,1,0.5,1,1V28z"/></g>
<g transform="translate(0,262.8125)" fill="#000000">
<g transform="translate(337.125,105.125) scale(4.9783333333333)"><path d="M6,5.5H3C1.6,5.5,0.5,4.4,0.5,3v0c0-1.4,1.1-2.5,2.5-2.5h3V5.5z"/></g>
<g transform="translate(366.125,105.125) scale(4.9783333333333)"><rect y="0.5" width="6" height="5"/></g>
<g transform="translate(395.125,105.125) scale(4.9783333333333)"><path d="M3,5.5H0v-5h3c1.4,0,2.5,1.1,2.5,2.5v0C5.5,4.4,4.4,5.5,3,5.5z"/></g>
<g transform="translate(540.125,105.125) scale(4.9783333333333)"><circle cx="3" cy="3" r="2.5"/></g>
<g transform="translate(598.125,105.125) scale(4.9783333333333)"><path d="M6,5.5H3C1.6,5.5,0.5,4.4,0.5,3v0c0-1.4,1.1-2.5,2.5-2.5h3V5.5z"/></g>
<g transform="translate(627.125,105.125) scale(4.9783333333333)"><path d="M3,5.5H0v-5h3c1.4,0,2.5,1.1,2.5,2.5v0C5.5,4.4,4.4,5.5,3,5.5z"/></g>
<g transform="translate(685.125,105.125) scale(4.9783333333333)"><circle cx="3" cy="3" r="2.5"/></g>
<g transform="translate(337.125,134.125) scale(4.9783333333333)"><circle cx="3" cy="3" r="2.5"/></g>
<g transform="translate(395.125,134.125) scale(4.9783333333333)"><path d="M6,5.5H3C1.6,5.5,0.5,4.4,0.5,3v0c0-1.4,1.1-2.5,2.5-2.5h3V5.5z"/></g>
<g transform="translate(424.125,134.125) scale(4.9783333333333)"><path d="M3,5.5H0v-5h3c1.4,0,2.5,1.1,2.5,2.5v0C5.5,4.4,4.4,5.5,3,5.5z"/></g>
<g transform="translate(482.125,134.125) scale(4.9783333333333)"><path d="M6,5.5H3C1.6,5.5,0.5,4.4,0.5,3v0c0-1.4,1.1-2.5,2.5-2.5h3V5.5z"/></g>
<g transform="translate(511.125,134.125) scale(4.9783333333333)"><rect y="0.5" width="6" height="5"/></g>
<g transform="translate(540.125,134.125) scale(4.9783333333333)"><rect y="0.5" width="6" height="5"/></g>
<g transform="translate(569.125,134.125) scale(4.9783333333333)"><rect y="0.5" width="6" height="5"/></g>
<g transform="translate(598.125,134.125) scale(4.9783333333333)"><path d="M3,5.5H0v-5h3c1.4,0,2.5,1.1,2.5,2.5v0C5.5,4.4,4.4,5.5,3,5.5z"/></g>
<g transform="translate(656.125,134.125) scale(4.9783333333333)"><circle cx="3" cy="3" r="2.5"/></g>
<g transform="translate(337.125,163.125) scale(4.9783333333333)"><path d="M6,5.5H3C1.6,5.5,0.5,4.4,0.5,3v0c0-1.4,1.1-2.5,2.5-2.5h3V5.5z"/></g>
<g transform="translate(366.125,163.125) scale(4.9783333333333)"><path d="M3,5.5H0v-5h3c1.4,0,2.5,1.1,2.5,2.5v0C5.5,4.4,4.4,5.5,3,5.5z"/></g>
<g transform="translate(424.125,163.125) scale(4.9783333333333)"><path d="M6,5.5H3C1.6,5.5,0.5,4.4,0.5,3v0c0-1.4,1.1-2.5,2.5-2.5h3V5.5z"/></g>
<g transform="translate(453.125,163.125) scale(4.9783333333333)"><path d="M3,5.5H0v-5h3c1.4,0,2.5,1.1,2.5,2.5v0C5.5,4.4,4.4,5.5,3,5.5z"/></g>
<g transform="translate(540.125,163.125) scale(4.9783333333333)"><path d="M6,5.5H3C1.6,5.5,0.5,4.4,0.5,3v0c0-1.4,1.1-2.5,2.5-2.5h3V5.5z"/></g>
<g transform="translate(569.125,163.125) scale(4.9783333333333)"><path d="M3,5.5H0v-5h3c1.4,0,2.5,1.1,2.5,2.5v0C5.5,4.4,4.4,5.5,3,5.5z"/></g>
<g transform="translate(627.125,163.125) scale(4.9783333333333)"><path d="M6,5.5H3C1.6,5.5,0.5,4.4,0.5,3v0c0-1.4,1.1-2.5,2.5-2.5h3V5.5z"/></g>
<g transform="translate(656.125,163.125) scale(4.9783333333333)"><rect y="0.5" width="6" height="5"/></g>
<g transform="translate(685.125,163.125) scale(4.9783333333333)"><path d="M3,5.5H0v-5h3c1.4,0,2.5,1.1,2.5,2.5v0C5.5,4.4,4.4,5.5,3,5.5z"/></g>
<g transform="translate(366.125,192.125) scale(4.9783333333333)"><path d="M6,5.5H3C1.6,5.5,0.5,4.4,0.5,3v0c0-1.4,1.1-2.5,2.5-2.5h3V5.5z"/></g>
<g transform="translate(395.125,192.125) scale(4.9783333333333)"><path d="M3,5.5H0v-5h3c1.4,0,2.5,1.1,2.5,2.5v0C5.5,4.4,4.4,5.5,3,5.5z"/></g>
<g transform="translate(482.125,192.125) scale(4.9783333333333)"><circle cx="3" cy="3" r="2.5"/></g>
<g transform="translate(598.125,192.125) scale(4.9783333333333)"><circle cx="3" cy="3" r="2.5"/></g>
<g transform="translate(656.125,192.125) scale(4.9783333333333)"><circle cx="3" cy="3" r="2.5"/></g>
<g transform="translate(366.125,221.125) scale(4.9783333333333)"><path d="M6,5.5H3C1.6,5.5,0.5,4.4,0.5,3v0c0-1.4,1.1-2.5,2.5-2.5h3V5.5z"/></g>
<g transform="translate(395.125,221.125) scale(4.9783333333333)"><rect y="0.5" width="6" height="5"/></g>
<g transform="translate(424.125,221.125) scale(4.9783333333333)"><path d="M3,5.5H0v-5h3c1.4,0,2.5,1.1,2.5,2.5v0C5.5,4.4,4.4,5.5,3,5.5z"/></g>
<g transform="translate(627.125,221.125) scale(4.9783333333333)"><path d="M6,5.5H3C1.6,5.5,0.5,4.4,0.5,3v0c0-1.4,1.1-2.5,2.5-2.5h3V5.5z"/></g>
<g transform="translate(656.125,221.125) scale(4.9783333333333)"><path d="M3,5.5H0v-5h3c1.4,0,2.5,1.1,2.5,2.5v0C5.5,4.4,4.4,5.5,3,5.5z"/></g>
<g transform="translate(337.125,250.125) scale(4.9783333333333)"><circle cx="3" cy="3" r="2.5"/></g>
<g transform="translate(395.125,250.125) scale(4.9783333333333)"><circle cx="3" cy="3" r="2.5"/></g>
<g transform="translate(569.125,250.125) scale(4.9783333333333)"><circle cx="3" cy="3" r="2.5"/></g>
<g transform="translate(627.125,250.125) scale(4.9783333333333)"><circle cx="3" cy="3" r="2.5"/></g>
<g transform="translate(337.125,279.125) scale(4.9783333333333)"><circle cx="3" cy="3" r="2.5"/></g>
<g transform="translate(395.125,279.125) scale(4.9783333333333)"><circle cx="3" cy="3" r="2.5"/></g>
<g transform="translate(453.125,279.125) scale(4.9783333333333)"><circle cx="3" cy="3" r="2.5"/></g>
<g transform="translate(511.125,279.125) scale(4.9783333333333)"><circle cx="3" cy="3" r="2.5"/></g>
<g transform="translate(569.125,279.125) scale(4.9783333333333)"><circle cx="3" cy="3" r="2.5"/></g>
<g transform="translate(627.125,279.125) scale(4.9783333333333)"><circle cx="3" cy="3" r="2.5"/></g>
<g transform="translate(685.125,279.125) scale(4.9783333333333)"><circle cx="3" cy="3" r="2.5"/></g>
<g transform="translate(337.125,308.125) scale(4.9783333333333)"><circle cx="3" cy="3" r="2.5"/></g>
<g transform="translate(395.125,308.125) scale(4.9783333333333)"><circle cx="3" cy="3" r="2.5"/></g>
<g transform="translate(482.125,308.125) scale(4.9783333333333)"><circle cx="3" cy="3" r="2.5"/></g>
<g transform="translate(540.125,308.125) scale(4.9783333333333)"><path d="M6,5.5H3C1.6,5.5,0.5,4.4,0.5,3v0c0-1.4,1.1-2.5,2.5-2.5h3V5.5z"/></g>
<g transform="translate(569.125,308.125) scale(4.9783333333333)"><path d="M3,5.5H0v-5h3c1.4,0,2.5,1.1,2.5,2.5v0C5.5,4.4,4.4,5.5,3,5.5z"/></g>
<g transform="translate(656.125,308.125) scale(4.9783333333333)"><circle cx="3" cy="3" r="2.5"/></g>
<g transform="translate(163.125,337.125) scale(4.9783333333333)"><path d="M6,5.5H3C1.6,5.5,0.5,4.4,0.5,3v0c0-1.4,1.1-2.5,2.5-2.5h3V5.5z"/></g>
<g transform="translate(192.125,337.125) scale(4.9783333333333)"><rect y="0.5" width="6" height="5"/></g>
<g transform="translate(221.125,337.125) scale(4.9783333333333)"><path d="M3,5.5H0v-5h3c1.4,0,2.5,1.1,2.5,2.5v0C5.5,4.4,4.4,5.5,3,5.5z"/></g>
<g transform="translate(279.125,337.125) scale(4.9783333333333)"><circle cx="3" cy="3" r="2.5"/></g>
<g transform="translate(337.125,337.125) scale(4.9783333333333)"><path d="M6,5.5H3C1.6,5.5,0.5,4.4,0.5,3v0c0-1.4,1.1-2.5,2.5-2.5h3V5.5z"/></g>
<g transform="translate(366.125,337.125) scale(4.9783333333333)"><path d="M3,5.5H0v-5h3c1.4,0,2.5,1.1,2.5,2.5v0C5.5,4.4,4.4,5.5,3,5.5z"/></g>
<g transform="translate(424.125,337.125) scale(4.9783333333333)"><circle cx="3" cy="3" r="2.5"/></g>
<g transform="translate(511.125,337.125) scale(4.9783333333333)"><circle cx="3" cy="3" r="2.5"/></g>
<g transform="translate(627.125,337.125) scale(4.9783333333333)"><circle cx="3" cy="3" r="2.5"/></g>
<g transform="translate(714.125,337.125) scale(4.9783333333333)"><path d="M6,5.5H3C1.6,5.5,0.5,4.4,0.5,3v0c0-1.4,1.1-2.5,2.5-2.5h3V5.5z"/></g>
<g transform="translate(743.125,337.125) scale(4.9783333333333)"><rect y="0.5" width="6" height="5"/></g>
<g transform="translate(772.125,337.125) scale(4.9783333333333)"><path d="M3,5.5H0v-5h3c1.4,0,2.5,1.1,2.5,2.5v0C5.5,4.4,4.4,5.5,3,5.5z"/></g>
<g transform="translate(859.125,337.125) scale(4.9783333333333)"><path d="M6,5.5H3C1.6,5.5,0.5,4.4,0.5,3v0c0-1.4,1.1-2.5,2.5-2.5h3V5.5z"/></g>
<g transform="translate(888.125,337.125) scale(4.9783333333333)"><rect y="0.5" width="6" height="5"/></g>
<g transform="translate(917.125,337.125) scale(4.9783333333333)"><path d="M3,5.5H0v-5h3c1.4,0,2.5,1.1,2.5,2.5v0C5.5,4.4,4.4,5.5,3,5.5z"/></g>
<g transform="translate(105.125,366.125) scale(4.9783333333333)"><path d="M6,5.5H3C1.6,5.5,0.5,4.4,0.5,3v0c0-1.4,1.1-2.5,2.5-2.5h3V5.5z"/></g>
<g transform="translate(134.125,366.125) scale(4.9783333333333)"><rect y="0.5" width="6" height="5"/></g>
<g transform="translate(163.125,366.125) scale(4.9783333333333)"><path d="M3,5.5H0v-5h3c1.4,0,2.5,1.1,2.5,2.5v0C5.5,4.4,4.4,5.5,3,5.5z"/></g>
<g transform="translate(221.125,366.125) scale(4.9783333333333)"><path d="M6,5.5H3C1.6,5.5,0.5,4.4,0.5,3v0c0-1.4,1.1-2.5,2.5-2.5h3V5.5z"/></g>
<g transform="translate(250.125,366.125) scale(4.9783333333333)"><path d="M3,5.5H0v-5h3c1.4,0,2.5,1.1,2.5,2.5v0C5.5,4.4,4.4,5.5,3,5.5z"/></g>
<g transform="translate(337.125,366.125) scale(4.9783333333333)"><circle cx="3" cy="3" r="2.5"/></g>
<g transform="translate(453.125,366.125) scale(4.9783333333333)"><circle cx="3" cy="3" r="2.5"/></g>
<g transform="translate(540.125,366.125) scale(4.9783333333333)"><circle cx="3" cy="3" r="2.5"/></g>
<g transform="translate(598.125,366.125) scale(4.9783333333333)"><circle cx="3" cy="3" r="2.5"/></g>
<g transform="translate(714.125,366.125) scale(4.9783333333333)"><path d="M6,5.5H3C1.6,5.5,0.5,4.4,0.5,3v0c0-1.4,1.1-2.5,2.5-2.5h3V5.5z"/></g>
<g transform="translate(743.125,366.125) scale(4.9783333333333)"><rect y="0.5" width="6" height="5"/></g>
<g transform="translate(772.125,366.125) scale(4.9783333333333)"><rect y="0.5" width="6" height="5"/></g>
<g transform="translate(801.125,366.125) scale(4.9783333333333)"><rect y="0.5" width="6" height="5"/></g>
<g transform="translate(830.125,366.125) scale(4.9783333333333)"><rect y="0.5" width="6" height="5"/></g>
<g transform="translate(859.125,366.125) scale(4.9783333333333)"><path d="M3,5.5H0v-5h3c1.4,0,2.5,1.1,2.5,2.5v0C5.5,4.4,4.4,5.5,3,5.5z"/></g>
<g transform="translate(917.125,366.125) scale(4.9783333333333)"><circle cx="3" cy="3" r="2.5"/></g>
<g transform="translate(105.125,395.125) scale(4.9783333333333)"><path d="M6,5.5H3C1.6,5.5,0.5,4.4,0.5,3v0c0-1.4,1.1-2.5,2.5-2.5h3V5.5z"/></g>
<g transform="translate(134.125,395.125) scale(4.9783333333333)"><path d="M3,5.5H0v-5h3c1.4,0,2.5,1.1,2.5,2.5v0C5.5,4.4,4.4,5.5,3,5.5z"/></g>
<g transform="translate(192.125,395.125) scale(4.9783333333333)"><path d="M6,5.5H3C1.6,5.5,0.5,4.4,0.5,3v0c0-1.4,1.1-2.5,2.5-2.5h3V5.5z"/></g>
<g transform="translate(221.125,395.125) scale(4.9783333333333)"><rect y="0.5" width="6" height="5"/></g>
<g transform="translate(250.125,395.125) scale(4.9783333333333)"><rect y="0.5" width="6" height="5"/></g>
<g transform="translate(279.125,395.125) scale(4.9783333333333)"><path d="M3,5.5H0v-5h3c1.4,0,2.5,1.1,2.5,2.5v0C5.5,4.4,4.4,5.5,3,5.5z"/></g>
<g transform="translate(337.125,395.125) scale(4.9783333333333)"><path d="M6,5.5H3C1.6,5.5,0.5,4.4,0.5,3v0c0-1.4,1.1-2.5,2.5-2.5h3V5.5z"/></g>
<g transform="translate(366.125,395.125) scale(4.9783333333333)"><path d="M3,5.5H0v-5h3c1.4,0,2.5,1.1,2.5,2.5v0C5.5,4.4,4.4,5.5,3,5.5z"/></g>
<g transform="translate(482.125,395.125) scale(4.9783333333333)"><circle cx="3" cy="3" r="2.5"/></g>
<g transform="translate(569.125,395.125) scale(4.9783333333333)"><circle cx="3" cy="3" r="2.5"/></g>
<g transform="translate(714.125,395.125) scale(4.9783333333333)"><path d="M6,5.5H3C1.6,5.5,0.5,4.4,0.5,3v0c0-1.4,1.1-2.5,2.5-2.5h3V5.5z"/></g>
<g transform="translate(743.125,395.125) scale(4.9783333333333)"><rect y="0.5" width="6" height="5"/></g>
<g transform="translate(772.125,395.125) scale(4.9783333333333)"><rect y="0.5" width="6" height="5"/></g>
<g transform="translate(801.125,395.125) scale(4.9783333333333)"><path d="M3,5.5H0v-5h3c1.4,0,2.5,1.1,2.5,2.5v0C5.5,4.4,4.4,5.5,3,5.5z"/></g>
<g transform="translate(859.125,395.125) scale(4.9783333333333)"><circle cx="3" cy="3" r="2.5"/></g>
<g transform="translate(134.125,424.125) scale(4.9783333333333)"><path d="M6,5.5H3C1.6,5.5,0.5,4.4,0.5,3v0c0-1.4,1.1-2.5,2.5-2.5h3V5.5z"/></g>
<g transform="translate(163.125,424.125) scale(4.9783333333333)"><rect y="0.5" width="6" height="5"/></g>
<g transform="translate(192.125,424.125) scale(4.9783333333333)"><path d="M3,5.5H0v-5h3c1.4,0,2.5,1.1,2.5,2.5v0C5.5,4.4,4.4,5.5,3,5.5z"/></g>
<g transform="translate(308.125,424.125) scale(4.9783333333333)"><circle cx="3" cy="3" r="2.5"/></g>
<g transform="translate(366.125,424.125) scale(4.9783333333333)"><circle cx="3" cy="3" r="2.5"/></g>
<g transform="translate(424.125,424.125) scale(4.9783333333333)"><circle cx="3" cy="3" r="2.5"/></g>
<g transform="translate(511.125,424.125) scale(4.9783333333333)"><circle cx="3" cy="3" r="2.5"/></g>
<g transform="translate(569.125,424.125) scale(4.9783333333333)"><circle cx="3" cy="3" r="2.5"/></g>
<g transform="translate(627.125,424.125) scale(4.9783333333333)"><circle cx="3" cy="3" r="2.5"/></g>
<g transform="translate(714.125,424.125) scale(4.9783333333333)"><path d="M6,5.5H3C1.6,5.5,0.5,4.4,0.5,3v0c0-1.4,1.1-2.5,2.5-2.5h3V5.5z"/></g>
<g transform="translate(743.125,424.125) scale(4.9783333333333)"><rect y="0.5" width="6" height="5"/></g>
<g transform="translate(772.125,424.125) scale(4.9783333333333)"><path d="M3,5.5H0v-5h3c1.4,0,2.5,1.1,2.5,2.5v0C5.5,4.4,4.4,5.5,3,5.5z"/></g>
<g transform="translate(830.125,424.125) scale(4.9783333333333)"><circle cx="3" cy="3" r="2.5"/></g>
<g transform="translate(888.125,424.125) scale(4.9783333333333)"><circle cx="3" cy="3" r="2.5"/></g>
<g transform="translate(134.125,453.125) scale(4.9783333333333)"><circle cx="3" cy="3" r="2.5"/></g>
<g transform="translate(221.125,453.125) scale(4.9783333333333)"><circle cx="3" cy="3" r="2.5"/></g>
<g transform="translate(279.125,453.125) scale(4.9783333333333)"><path d="M6,5.5H3C1.6,5.5,0.5,4.4,0.5,3v0c0-1.4,1.1-2.5,2.5-2.5h3V5.5z"/></g>
<g transform="translate(308.125,453.125) scale(4.9783333333333)"><rect y="0.5" width="6" height="5"/></g>
<g transform="translate(337.125,453.125) scale(4.9783333333333)"><path d="M3,5.5H0v-5h3c1.4,0,2.5,1.1,2.5,2.5v0C5.5,4.4,4.4,5.5,3,5.5z"/></g>
<g transform="translate(424.125,453.125) scale(4.9783333333333)"><path d="M6,5.5H3C1.6,5.5,0.5,4.4,0.5,3v0c0-1.4,1.1-2.5,2.5-2.5h3V5.5z"/></g>
<g transform="translate(453.125,453.125) scale(4.9783333333333)"><path d="M3,5.5H0v-5h3c1.4,0,2.5,1.1,2.5,2.5v0C5.5,4.4,4.4,5.5,3,5.5z"/></g>
<g transform="translate(540.125,453.125) scale(4.9783333333333)"><circle cx="3" cy="3" r="2.5"/></g>
<g transform="translate(598.125,453.125) scale(4.9783333333333)"><circle cx="3" cy="3" r="2.5"/></g>
<g transform="translate(685.125,453.125) scale(4.9783333333333)"><path d="M6,5.5H3C1.6,5.5,0.5,4.4,0.5,3v0c0-1.4,1.1-2.5,2.5-2.5h3V5.5z"/></g>
<g transform="translate(714.125,453.125) scale(4.9783333333333)"><path d="M3,5.5H0v-5h3c1.4,0,2.5,1.1,2.5,2.5v0C5.5,4.4,4.4,5.5,3,5.5z"/></g>
<g transform="translate(772.125,453.125) scale(4.9783333333333)"><circle cx="3" cy="3" r="2.5"/></g>
<g transform="translate(859.125,453.125) scale(4.9783333333333)"><path d="M6,5.5H3C1.6,5.5,0.5,4.4,0.5,3v0c0-1.4,1.1-2.5,2.5-2.5h3V5.5z"/></g>
<g transform="translate(888.125,453.125) scale(4.9783333333333)"><rect y="0.5" width="6" height="5"/></g>
<g transform="translate(917.125,453.125) scale(4.9783333333333)"><path d="M3,5.5H0v-5h3c1.4,0,2.5,1.1,2.5,2.5v0C5.5,4.4,4.4,5.5,3,5.5z"/></g>
<g transform="translate(105.125,482.125) scale(4.9783333333333)"><circle cx="3" cy="3" r="2.5"/></g>
<g transform="translate(163.125,482.125) scale(4.9783333333333)"><path d="M6,5.5H3C1.6,5.5,0.5,4.4,0.5,3v0c0-1.4,1.1-2.5,2.5-2.5h3V5.5z"/></g>
<g transform="translate(192.125,482.125) scale(4.9783333333333)"><path d="M3,5.5H0v-5h3c1.4,0,2.5,1.1,2.5,2.5v0C5.5,4.4,4.4,5.5,3,5.5z"/></g>
<g transform="translate(337.125,482.125) scale(4.9783333333333)"><circle cx="3" cy="3" r="2.5"/></g>
<g transform="translate(395.125,482.125) scale(4.9783333333333)"><path d="M6,5.5H3C1.6,5.5,0.5,4.4,0.5,3v0c0-1.4,1.1-2.5,2.5-2.5h3V5.5z"/></g>
<g transform="translate(424.125,482.125) scale(4.9783333333333)"><rect y="0.5" width="6" height="5"/></g>
<g transform="translate(453.125,482.125) scale(4.9783333333333)"><rect y="0.5" width="6" height="5"/></g>
<g transform="translate(482.125,482.125) scale(4.9783333333333)"><path d="M3,5.5H0v-5h3c1.4,0,2.5,1.1,2.5,2.5v0C5.5,4.4,4.4,5.5,3,5.5z"/></g>
<g transform="translate(569.125,482.125) scale(4.9783333333333)"><circle cx="3" cy="3" r="2.5"/></g>
<g transform="translate(627.125,482.125) scale(4.9783333333333)"><path d="M6,5.5H3C1.6,5.5,0.5,4.4,0.5,3v0c0-1.4,1.1-2.5,2.5-2.5h3V5.5z"/></g>
<g transform="translate(656.125,482.125) scale(4.9783333333333)"><rect y="0.5" width="6" height="5"/></g>
<g transform="translate(685.125,482.125) scale(4.9783333333333)"><rect y="0.5" width="6" height="5"/></g>
<g transform="translate(714.125,482.125) scale(4.9783333333333)"><rect y="0.5" width="6" height="5"/></g>
<g transform="translate(743.125,482.125) scale(4.9783333333333)"><path d="M3,5.5H0v-5h3c1.4,0,2.5,1.1,2.5,2.5v0C5.5,4.4,4.4,5.5,3,5.5z"/></g>
<g transform="translate(801.125,482.125) scale(4.9783333333333)"><path d="M6,5.5H3C1.6,5.5,0.5,4.4,0.5,3v0c0-1.4,1.1-2.5,2.5-2.5h3V5.5z"/></g>
<g transform="translate(830.125,482.125) scale(4.9783333333333)"><path d="M3,5.5H0v-5h3c1.4,0,2.5,1.1,2.5,2.5v0C5.5,4.4,4.4,5.5,3,5.5z"/></g>
<g transform="translate(888.125,482.125) scale(4.9783333333333)"><path d="M6,5.5H3C1.6,5.5,0.5,4.4,0.5,3v0c0-1.4,1.1-2.5,2.5-2.5h3V5.5z"/></g>
<g transform="translate(917.125,482.125) scale(4.9783333333333)"><path d="M3,5.5H0v-5h3c1.4,0,2.5,1.1,2.5,2.5v0C5.5,4.4,4.4,5.5,3,5.5z"/></g>
<g transform="translate(105.125,511.125) scale(4.9783333333333)"><circle cx="3" cy="3" r="2.5"/></g>
<g transform="translate(163.125,511.125) scale(4.9783333333333)"><circle cx="3" cy="3" r="2.5"/></g>
<g transform="translate(250.125,511.125) scale(4.9783333333333)"><path d="M6,5.5H3C1.6,5.5,0.5,4.4,0.5,3v0c0-1.4,1.1-2.5,2.5-2.5h3V5.5z"/></g>
<g transform="translate(279.125,511.125) scale(4.9783333333333)"><rect y="0.5" width="6" height="5"/></g>
<g transform="translate(308.125,511.125) scale(4.9783333333333)"><rect y="0.5" width="6" height="5"/></g>
<g transform="translate(337.125,511.125) scale(4.9783333333333)"><path d="M3,5.5H0v-5h3c1.4,0,2.5,1.1,2.5,2.5v0C5.5,4.4,4.4,5.5,3,5.5z"/></g>
<g transform="translate(424.125,511.125) scale(4.9783333333333)"><path d="M6,5.5H3C1.6,5.5,0.5,4.4,0.5,3v0c0-1.4,1.1-2.5,2.5-2.5h3V5.5z"/></g>
<g transform="translate(453.125,511.125) scale(4.9783333333333)"><rect y="0.5" width="6" height="5"/></g>
<g transform="translate(482.125,511.125) scale(4.9783333333333)"><rect y="0.5" width="6" height="5"/></g>
<g transform="translate(511.125,511.125) scale(4.9783333333333)"><rect y="0.5" width="6" height="5"/></g>
<g transform="translate(540.125,511.125) scale(4.9783333333333)"><rect y="0.5" width="6" height="5"/></g>
<g transform="translate(569.125,511.125) scale(4.9783333333333)"><rect y="0.5" width="6" height="5"/></g>
<g transform="translate(598.125,511.125) scale(4.9783333333333)"><rect y="0.5" width="6" height="5"/></g>
<g transform="translate(627.125,511.125) scale(4.9783333333333)"><path d="M3,5.5H0v-5h3c1.4,0,2.5,1.1,2.5,2.5v0C5.5,4.4,4.4,5.5,3,5.5z"/></g>
<g transform="translate(685.125,511.125) scale(4.9783333333333)"><path d="M6,5.5H3C1.6,5.5,0.5,4.4,0.5,3v0c0-1.4,1.1-2.5,2.5-2.5h3V5.5z"/></g>
<g transform="translate(714.125,511.125) scale(4.9783333333333)"><rect y="0.5" width="6" height="5"/></g>
<g transform="translate(743.125,511.125) scale(4.9783333333333)"><rect y="0.5" width="6" height="5"/></g>
<g transform="translate(772.125,511.125) scale(4.9783333333333)"><path d="M3,5.5H0v-5h3c1.4,0,2.5,1.1,2.5,2.5v0C5.5,4.4,4.4,5.5,3,5.5z"/></g>
<g transform="translate(192.125,540.125) scale(4.9783333333333)"><circle cx="3" cy="3" r="2.5"/></g>
<g transform="translate(250.125,540.125) scale(4.9783333333333)"><circle cx="3" cy="3" r="2.5"/></g>
<g transform="translate(308.125,540.125) scale(4.9783333333333)"><path d="M6,5.5H3C1.6,5.5,0.5,4.4,0.5,3v0c0-1.4,1.1-2.5,2.5-2.5h3V5.5z"/></g>
<g transform="translate(337.125,540.125) scale(4.9783333333333)"><rect y="0.5" width="6" height="5"/></g>
<g transform="translate(366.125,540.125) scale(4.9783333333333)"><path d="M3,5.5H0v-5h3c1.4,0,2.5,1.1,2.5,2.5v0C5.5,4.4,4.4,5.5,3,5.5z"/></g>
<g transform="translate(424.125,540.125) scale(4.9783333333333)"><circle cx="3" cy="3" r="2.5"/></g>
<g transform="translate(511.125,540.125) scale(4.9783333333333)"><circle cx="3" cy="3" r="2.5"/></g>
<g transform="translate(569.125,540.125) scale(4.9783333333333)"><path d="M6,5.5H3C1.6,5.5,0.5,4.4,0.5,3v0c0-1.4,1.1-2.5,2.5-2.5h3V5.5z"/></g>
<g transform="translate(598.125,540.125) scale(4.9783333333333)"><rect y="0.5" width="6" height="5"/></g>
<g transform="translate(627.125,540.125) scale(4.9783333333333)"><path d="M3,5.5H0v-5h3c1.4,0,2.5,1.1,2.5,2.5v0C5.5,4.4,4.4,5.5,3,5.5z"/></g>
<g transform="translate(743.125,540.125) scale(4.9783333333333)"><circle cx="3" cy="3" r="2.5"/></g>
<g transform="translate(801.125,540.125) scale(4.9783333333333)"><path d="M6,5.5H3C1.6,5.5,0.5,4.4,0.5,3v0c0-1.4,1.1-2.5,2.5-2.5h3V5.5z"/></g>
<g transform="translate(830.125,540.125) scale(4.9783333333333)"><path d="M3,5.5H0v-5h3c1.4,0,2.5,1.1,2.5,2.5v0C5.5,4.4,4.4,5.5,3,5.5z"/></g>
<g transform="translate(163.125,569.125) scale(4.9783333333333)"><path d="M6,5.5H3C1.6,5.5,0.5,4.4,0.5,3v0c0-1.4,1.1-2.5,2.5-2.5h3V5.5z"/></g>
<g transform="translate(192.125,569.125) scale(4.9783333333333)"><path d="M3,5.5H0v-5h3c1.4,0,2.5,1.1,2.5,2.5v0C5.5,4.4,4.4,5.5,3,5.5z"/></g>
<g transform="translate(250.125,569.125) scale(4.9783333333333)"><path d="M6,5.5H3C1.6,5.5,0.5,4.4,0.5,3v0c0-1.4,1.1-2.5,2.5-2.5h3V5.5z"/></g>
<g transform="translate(279.125,569.125) scale(4.9783333333333)"><path d="M3,5.5H0v-5h3c1.4,0,2.5,1.1,2.5,2.5v0C5.5,4.4,4.4,5.5,3,5.5z"/></g>
<g transform="translate(366.125,569.125) scale(4.9783333333333)"><circle cx="3" cy="3" r="2.5"/></g>
<g transform="translate(424.125,569.125) scale(4.9783333333333)"><path d="M6,5.5H3C1.6,5.5,0.5,4.4,0.5,3v0c0-1.4,1.1-2.5,2.5-2.5h3V5.5z"/></g>
<g transform="translate(453.125,569.125) scale(4.9783333333333)"><rect y="0.5" width="6" height="5"/></g>
<g transform="translate(482.125,569.125) scale(4.9783333333333)"><path d="M3,5.5H0v-5h3c1.4,0,2.5,1.1,2.5,2.5v0C5.5,4.4,4.4,5.5,3,5.5z"/></g>
<g transform="translate(627.125,569.125) scale(4.9783333333333)"><circle cx="3" cy="3" r="2.5"/></g>
<g transform="translate(685.125,569.125) scale(4.9783333333333)"><circle cx="3" cy="3" r="2.5"/></g>
<g transform="translate(743.125,569.125) scale(4.9783333333333)"><circle cx="3" cy="3" r="2.5"/></g>
<g transform="translate(830.125,569.125) scale(4.9783333333333)"><path d="M6,5.5H3C1.6,5.5,0.5,4.4,0.5,3v0c0-1.4,1.1-2.5,2.5-2.5h3V5.5z"/></g>
<g transform="translate(859.125,569.125) scale(4.9783333333333)"><rect y="0.5" width="6" height="5"/></g>
<g transform="translate(888.125,569.125) scale(4.9783333333333)"><rect y="0.5" width="6" height="5"/></g>
<g transform="translate(917.125,569.125) scale(4.9783333333333)"><path d="M3,5.5H0v-5h3c1.4,0,2.5,1.1,2.5,2.5v0C5.5,4.4,4.4,5.5,3,5.5z"/></g>
<g transform="translate(105.125,598.125) scale(4.9783333333333)"><path d="M6,5.5H3C1.6,5.5,0.5,4.4,0.5,3v0c0-1.4,1.1-2.5,2.5-2.5h3V5.5z"/></g>
<g transform="translate(134.125,598.125) scale(4.9783333333333)"><path d="M3,5.5H0v-5h3c1.4,0,2.5,1.1,2.5,2.5v0C5.5,4.4,4.4,5.5,3,5.5z"/></g>
<g transform="translate(192.125,598.125) scale(4.9783333333333)"><circle cx="3" cy="3" r="2.5"/></g>
<g transform="translate(250.125,598.125) scale(4.9783333333333)"><circle cx="3" cy="3" r="2.5"/></g>
<g transform="translate(337.125,598.125) scale(4.9783333333333)"><path d="M6,5.5H3C1.6,5.5,0.5,4.4,0.5,3v0c0-1.4,1.1-2.5,2.5-2.5h3V5.5z"/></g>
<g transform="translate(366.125,598.125) scale(4.9783333333333)"><path d="M3,5.5H0v-5h3c1.4,0,2.5,1.1,2.5,2.5v0C5.5,4.4,4.4,5.5,3,5.5z"/></g>
<g transform="translate(453.125,598.125) scale(4.9783333333333)"><circle cx="3" cy="3" r="2.5"/></g>
<g transform="translate(511.125,598.125) scale(4.9783333333333)"><path d="M6,5.5H3C1.6,5.5,0.5,4.4,0.5,3v0c0-1.4,1.1-2.5,2.5-2.5h3V5.5z"/></g>
<g transform="translate(540.125,598.125) scale(4.9783333333333)"><rect y="0.5" width="6" height="5"/></g>
<g transform="translate(569.125,598.125) scale(4.9783333333333)"><rect y="0.5" width="6" height="5"/></g>
<g transform="translate(598.125,598.125) scale(4.9783333333333)"><path d="M3,5.5H0v-5h3c1.4,0,2.5,1.1,2.5,2.5v0C5.5,4.4,4.4,5.5,3,5.5z"/></g>
<g transform="translate(743.125,598.125) scale(4.9783333333333)"><circle cx="3" cy="3" r="2.5"/></g>
<g transform="translate(859.125,598.125) scale(4.9783333333333)"><path d="M6,5.5H3C1.6,5.5,0.5,4.4,0.5,3v0c0-1.4,1.1-2.5,2.5-2.5h3V5.5z"/></g>
<g transform="translate(888.125,598.125) scale(4.9783333333333)"><rect y="0.5" width="6" height="5"/></g>
<g transform="translate(917.125,598.125) scale(4.9783333333333)"><path d="M3,5.5H0v-5h3c1.4,0,2.5,1.1,2.5,2.5v0C5.5,4.4,4.4,5.5,3,5.5z"/></g>
<g transform="translate(105.125,627.125) scale(4.9783333333333)"><circle cx="3" cy="3" r="2.5"/></g>
<g transform="translate(192.125,627.125) scale(4.9783333333333)"><path d="M6,5.5H3C1.6,5.5,0.5,4.4,0.5,3v0c0-1.4,1.1-2.5,2.5-2.5h3V5.5z"/></g>
<g transform="translate(221.125,627.125) scale(4.9783333333333)"><rect y="0.5" width="6" height="5"/></g>
<g transform="translate(250.125,627.125) scale(4.9783333333333)"><rect y="0.5" width="6" height="5"/></g>
<g transform="translate(279.125,627.125) scale(4.9783333333333)"><rect y="0.5" width="6" height="5"/></g>
<g transform="translate(308.125,627.125) scale(4.9783333333333)"><path d="M3,5.5H0v-5h3c1.4,0,2.5,1.1,2.5,2.5v0C5.5,4.4,4.4,5.5,3,5.5z"/></g>
<g transform="translate(366.125,627.125) scale(4.9783333333333)"><path d="M6,5.5H3C1.6,5.5,0.5,4.4,0.5,3v0c0-1.4,1.1-2.5,2.5-2.5h3V5.5z"/></g>
<g transform="translate(395.125,627.125) scale(4.9783333333333)"><path d="M3,5.5H0v-5h3c1.4,0,2.5,1.1,2.5,2.5v0C5.5,4.4,4.4,5.5,3,5.5z"/></g>
<g transform="translate(598.125,627.125) scale(4.9783333333333)"><circle cx="3" cy="3" r="2.5"/></g>
<g transform="translate(743.125,627.125) scale(4.9783333333333)"><path d="M6,5.5H3C1.6,5.5,0.5,4.4,0.5,3v0c0-1.4,1.1-2.5,2.5-2.5h3V5.5z"/></g>
<g transform="translate(772.125,627.125) scale(4.9783333333333)"><path d="M3,5.5H0v-5h3c1.4,0,2.5,1.1,2.5,2.5v0C5.5,4.4,4.4,5.5,3,5.5z"/></g>
<g transform="translate(830.125,627.125) scale(4.9783333333333)"><path d="M6,5.5H3C1.6,5.5,0.5,4.4,0.5,3v0c0-1.4,1.1-2.5,2.5-2.5h3V5.5z"/></g>
<g transform="translate(859.125,627.125) scale(4.9783333333333)"><path d="M3,5.5H0v-5h3c1.4,0,2.5,1.1,2.5,2.5v0C5.5,4.4,4.4,5.5,3,5.5z"/></g>
<g transform="translate(105.125,656.125) scale(4.9783333333333)"><circle cx="3" cy="3" r="2.5"/></g>
<g transform="translate(192.125,656.125) scale(4.9783333333333)"><path d="M6,5.5H3C1.6,5.5,0.5,4.4,0.5,3v0c0-1.4,1.1-2.5,2.5-2.5h3V5.5z"/></g>
<g transform="translate(221.125,656.125) scale(4.9783333333333)"><rect y="0.5" width="6" height="5"/></g>
<g transform="translate(250.125,656.125) scale(4.9783333333333)"><path d="M3,5.5H0v-5h3c1.4,0,2.5,1.1,2.5,2.5v0C5.5,4.4,4.4,5.5,3,5.5z"/></g>
<g transform="translate(395.125,656.125) scale(4.9783333333333)"><circle cx="3" cy="3" r="2.5"/></g>
<g transform="translate(540.125,656.125) scale(4.9783333333333)"><circle cx="3" cy="3" r="2.5"/></g>
<g transform="translate(598.125,656.125) scale(4.9783333333333)"><circle cx="3" cy="3" r="2.5"/></g>
<g transform="translate(685.125,656.125) scale(4.9783333333333)"><circle cx="3" cy="3" r="2.5"/></g>
<g transform="translate(743.125,656.125) scale(4.9783333333333)"><path d="M6,5.5H3C1.6,5.5,0.5,4.4,0.5,3v0c0-1.4,1.1-2.5,2.5-2.5h3V5.5z"/></g>
<g transform="translate(772.125,656.125) scale(4.9783333333333)"><path d="M3,5.5H0v-5h3c1.4,0,2.5,1.1,2.5,2.5v0C5.5,4.4,4.4,5.5,3,5.5z"/></g>
<g transform="translate(917.125,656.125) scale(4.9783333333333)"><circle cx="3" cy="3" r="2.5"/></g>
<g transform="translate(105.125,685.125) scale(4.9783333333333)"><circle cx="3" cy="3" r="2.5"/></g>
<g transform="translate(192.125,685.125) scale(4.9783333333333)"><circle cx="3" cy="3" r="2.5"/></g>
<g transform="translate(279.125,685.125) scale(4.9783333333333)"><circle cx="3" cy="3" r="2.5"/></g>
<g transform="translate(337.125,685.125) scale(4.9783333333333)"><circle cx="3" cy="3" r="2.5"/></g>
<g transform="translate(482.125,685.125) scale(4.9783333333333)"><path d="M6,5.5H3C1.6,5.5,0.5,4.4,0.5,3v0c0-1.4,1.1-2.5,2.5-2.5h3V5.5z"/></g>
<g transform="translate(511.125,685.125) scale(4.9783333333333)"><path d="M3,5.5H0v-5h3c1.4,0,2.5,1.1,2.5,2.5v0C5.5,4.4,4.4,5.5,3,5.5z"/></g>
<g transform="translate(598.125,685.125) scale(4.9783333333333)"><path d="M6,5.5H3C1.6,5.5,0.5,4.4,0.5,3v0c0-1.4,1.1-2.5,2.5-2.5h3V5.5z"/></g>
<g transform="translate(627.125,685.125) scale(4.9783333333333)"><rect y="0.5" width="6" height="5"/></g>
<g transform="translate(656.125,685.125) scale(4.9783333333333)"><rect y="0.5" width="6" height="5"/></g>
<g transform="translate(685.125,685.125) scale(4.9783333333333)"><rect y="0.5" width="6" height="5"/></g>
<g transform="translate(714.125,685.125) scale(4.9783333333333)"><rect y="0.5" width="6" height="5"/></g>
<g transform="translate(743.125,685.125) scale(4.9783333333333)"><rect y="0.5" width="6" height="5"/></g>
<g transform="translate(772.125,685.125) scale(4.9783333333333)"><rect y="0.5" width="6" height="5"/></g>
<g transform="translate(801.125,685.125) scale(4.9783333333333)"><path d="M3,5.5H0v-5h3c1.4,0,2.5,1.1,2.5,2.5v0C5.5,4.4,4.4,5.5,3,5.5z"/></g>
<g transform="translate(859.125,685.125) scale(4.9783333333333)"><circle cx="3" cy="3" r="2.5"/></g>
<g transform="translate(917.125,685.125) scale(4.9783333333333)"><circle cx="3" cy="3" r="2.5"/></g>
<g transform="translate(337.125,714.125) scale(4.9783333333333)"><circle cx="3" cy="3" r="2.5"/></g>
<g transform="translate(482.125,714.125) scale(4.9783333333333)"><path d="M6,5.5H3C1.6,5.5,0.5,4.4,0.5,3v0c0-1.4,1.1-2.5,2.5-2.5h3V5.5z"/></g>
<g transform="translate(511.125,714.125) scale(4.9783333333333)"><path d="M3,5.5H0v-5h3c1.4,0,2.5,1.1,2.5,2.5v0C5.5,4.4,4.4,5.5,3,5.5z"/></g>
<g transform="translate(569.125,714.125) scale(4.9783333333333)"><path d="M6,5.5H3C1.6,5.5,0.5,4.4,0.5,3v0c0-1.4,1.1-2.5,2.5-2.5h3V5.5z"/></g>
<g transform="translate(598.125,714.125) scale(4.9783333333333)"><rect y="0.5" width="6" height="5"/></g>
<g transform="translate(627.125,714.125) scale(4.9783333333333)"><rect y="0.5" width="6" height="5"/></g>
<g transform="translate(656.125,714.125) scale(4.9783333333333)"><rect y="0.5" width="6" height="5"/></g>
<g transform="translate(685.125,714.125) scale(4.9783333333333)"><path d="M3,5.5H0v-5h3c1.4,0,2.5,1.1,2.5,2.5v0C5.5,4.4,4.4,5.5,3,5.5z"/></g>
<g transform="translate(801.125,714.125) scale(4.9783333333333)"><path d="M6,5.5H3C1.6,5.5,0.5,4.4,0.5,3v0c0-1.4,1.1-2.5,2.5-2.5h3V5.5z"/></g>
<g transform="translate(830.125,714.125) scale(4.9783333333333)"><path d="M3,5.5H0v-5h3c1.4,0,2.5,1.1,2.5,2.5v0C5.5,4.4,4.4,5.5,3,5.5z"/></g>
<g transform="translate(888.125,714.125) scale(4.9783333333333)"><path d="M6,5.5H3C1.6,5.5,0.5,4.4,0.5,3v0c0-1.4,1.1-2.5,2.5-2.5h3V5.5z"/></g>
<g transform="translate(917.125,714.125) scale(4.9783333333333)"><path d="M3,5.5H0v-5h3c1.4,0,2.5,1.1,2.5,2.5v0C5.5,4.4,4.4,5.5,3,5.5z"/></g>
<g transform="translate(366.125,743.125) scale(4.9783333333333)"><path d="M6,5.5H3C1.6,5.5,0.5,4.4,0.5,3v0c0-1.4,1.1-2.5,2.5-2.5h3V5.5z"/></g>
<g transform="translate(395.125,743.125) scale(4.9783333333333)"><rect y="0.5" width="6" height="5"/></g>
<g transform="translate(424.125,743.125) scale(4.9783333333333)"><rect y="0.5" width="6" height="5"/></g>
<g transform="translate(453.125,743.125) scale(4.9783333333333)"><path d="M3,5.5H0v-5h3c1.4,0,2.5,1.1,2.5,2.5v0C5.5,4.4,4.4,5.5,3,5.5z"/></g>
<g transform="translate(540.125,743.125) scale(4.9783333333333)"><circle cx="3" cy="3" r="2.5"/></g>
<g transform="translate(598.125,743.125) scale(4.9783333333333)"><path d="M6,5.5H3C1.6,5.5,0.5,4.4,0.5,3v0c0-1.4,1.1-2.5,2.5-2.5h3V5.5z"/></g>
<g transform="translate(627.125,743.125) scale(4.9783333333333)"><rect y="0.5" width="6" height="5"/></g>
<g transform="translate(656.125,743.125) scale(4.9783333333333)"><rect y="0.5" width="6" height="5"/></g>
<g transform="translate(685.125,743.125) scale(4.9783333333333)"><path d="M3,5.5H0v-5h3c1.4,0,2.5,1.1,2.5,2.5v0C5.5,4.4,4.4,5.5,3,5.5z"/></g>
<g transform="translate(743.125,743.125) scale(4.9783333333333)"><circle cx="3" cy="3" r="2.5"/></g>
<g transform="translate(801.125,743.125) scale(4.9783333333333)"><circle cx="3" cy="3" r="2.5"/></g>
<g transform="translate(366.125,772.125) scale(4.9783333333333)"><circle cx="3" cy="3" r="2.5"/></g>
<g transform="translate(424.125,772.125) scale(4.9783333333333)"><circle cx="3" cy="3" r="2.5"/></g>
<g transform="translate(540.125,772.125) scale(4.9783333333333)"><circle cx="3" cy="3" r="2.5"/></g>
<g transform="translate(598.125,772.125) scale(4.9783333333333)"><path d="M6,5.5H3C1.6,5.5,0.5,4.4,0.5,3v0c0-1.4,1.1-2.5,2.5-2.5h3V5.5z"/></g>
<g transform="translate(627.125,772.125) scale(4.9783333333333)"><rect y="0.5" width="6" height="5"/></g>
<g transform="translate(656.125,772.125) scale(4.9783333333333)"><rect y="0.5" width="6" height="5"/></g>
<g transform="translate(685.125,772.125) scale(4.9783333333333)"><path d="M3,5.5H0v-5h3c1.4,0,2.5,1.1,2.5,2.5v0C5.5,4.4,4.4,5.5,3,5.5z"/></g>
<g transform="translate(801.125,772.125) scale(4.9783333333333)"><path d="M6,5.5H3C1.6,5.5,0.5,4.4,0.5,3v0c0-1.4,1.1-2.5,2.5-2.5h3V5.5z"/></g>
<g transform="translate(830.125,772.125) scale(4.9783333333333)"><path d="M3,5.5H0v-5h3c1.4,0,2.5,1.1,2.5,2.5v0C5.5,4.4,4.4,5.5,3,5.5z"/></g>
<g transform="translate(888.125,772.125) scale(4.9783333333333)"><circle cx="3" cy="3" r="2.5"/></g>
<g transform="translate(337.125,801.125) scale(4.9783333333333)"><circle cx="3" cy="3" r="2.5"/></g>
<g transform="translate(395.125,801.125) scale(4.9783333333333)"><path d="M6,5.5H3C1.6,5.5,0.5,4.4,0.5,3v0c0-1.4,1.1-2.5,2.5-2.5h3V5.5z"/></g>
<g transform="translate(424.125,801.125) scale(4.9783333333333)"><path d="M3,5.5H0v-5h3c1.4,0,2.5,1.1,2.5,2.5v0C5.5,4.4,4.4,5.5,3,5.5z"/></g>
<g transform="translate(482.125,801.125) scale(4.9783333333333)"><circle cx="3" cy="3" r="2.5"/></g>
<g transform="translate(569.125,801.125) scale(4.9783333333333)"><circle cx="3" cy="3" r="2.5"/></g>
<g transform="translate(627.125,801.125) scale(4.9783333333333)"><circle cx="3" cy="3" r="2.5"/></g>
<g transform="translate(685.125,801.125) scale(4.9783333333333)"><path d="M6,5.5H3C1.6,5.5,0.5,4.4,0.5,3v0c0-1.4,1.1-2.5,2.5-2.5h3V5.5z"/></g>
<g transform="translate(714.125,801.125) scale(4.9783333333333)"><rect y="0.5" width="6" height="5"/></g>
<g transform="translate(743.125,801.125) scale(4.9783333333333)"><rect y="0.5" width="6" height="5"/></g>
<g transform="translate(772.125,801.125) scale(4.9783333333333)"><rect y="0.5" width="6" height="5"/></g>
<g transform="translate(801.125,801.125) scale(4.9783333333333)"><rect y="0.5" width="6" height="5"/></g>
<g transform="translate(830.125,801.125) scale(4.9783333333333)"><rect y="0.5" width="6" height="5"/></g>
<g transform="translate(859.125,801.125) scale(4.9783333333333)"><path d="M3,5.5H0v-5h3c1.4,0,2.5,1.1,2.5,2.5v0C5.5,4.4,4.4,5.5,3,5.5z"/></g>
<g transform="translate(917.125,801.125) scale(4.9783333333333)"><circle cx="3" cy="3" r="2.5"/></g>
<g transform="translate(337.125,830.125) scale(4.9783333333333)"><path d="M6,5.5H3C1.6,5.5,0.5,4.4,0.5,3v0c0-1.4,1.1-2.5,2.5-2.5h3V5.5z"/></g>
<g transform="translate(366.125,830.125) scale(4.9783333333333)"><rect y="0.5" width="6" height="5"/></g>
<g transform="translate(395.125,830.125) scale(4.9783333333333)"><path d="M3,5.5H0v-5h3c1.4,0,2.5,1.1,2.5,2.5v0C5.5,4.4,4.4,5.5,3,5.5z"/></g>
<g transform="translate(511.125,830.125) scale(4.9783333333333)"><circle cx="3" cy="3" r="2.5"/></g>
<g transform="translate(569.125,830.125) scale(4.9783333333333)"><path d="M6,5.5H3C1.6,5.5,0.5,4.4,0.5,3v0c0-1.4,1.1-2.5,2.5-2.5h3V5.5z"/></g>
<g transform="translate(598.125,830.125) scale(4.9783333333333)"><rect y="0.5" width="6" height="5"/></g>
<g transform="translate(627.125,830.125) scale(4.9783333333333)"><rect y="0.5" width="6" height="5"/></g>
<g transform="translate(656.125,830.125) scale(4.9783333333333)"><rect y="0.5" width="6" height="5"/></g>
<g transform="translate(685.125,830.125) scale(4.9783333333333)"><rect y="0.5" width="6" height="5"/></g>
<g transform="translate(714.125,830.125) scale(4.9783333333333)"><path d="M3,5.5H0v-5h3c1.4,0,2.5,1.1,2.5,2.5v0C5.5,4.4,4.4,5.5,3,5.5z"/></g>
<g transform="translate(772.125,830.125) scale(4.9783333333333)"><circle cx="3" cy="3" r="2.5"/></g>
<g transform="translate(888.125,830.125) scale(4.9783333333333)"><circle cx="3" cy="3" r="2.5"/></g>
<g transform="translate(337.125,859.125) scale(4.9783333333333)"><circle cx="3" cy="3" r="2.5"/></g>
<g transform="translate(395.125,859.125) scale(4.9783333333333)"><path d="M6,5.5H3C1.6,5.5,0.5,4.4,0.5,3v0c0-1.4,1.1-2.5,2.5-2.5h3V5.5z"/></g>
<g transform="translate(424.125,859.125) scale(4.9783333333333)"><rect y="0.5" width="6" height="5"/></g>
<g transform="translate(453.125,859.125) scale(4.9783333333333)"><rect y="0.5" width="6" height="5"/></g>
<g transform="translate(482.125,859.125) scale(4.9783333333333)"><path d="M3,5.5H0v-5h3c1.4,0,2.5,1.1,2.5,2.5v0C5.5,4.4,4.4,5.5,3,5.5z"/></g>
<g transform="translate(598.125,859.125) scale(4.9783333333333)"><path d="M6,5.5H3C1.6,5.5,0.5,4.4,0.5,3v0c0-1.4,1.1-2.5,2.5-2.5h3V5.5z"/></g>
<g transform="translate(627.125,859.125) scale(4.9783333333333)"><rect y="0.5" width="6" height="5"/></g>
<g transform="translate(656.125,859.125) scale(4.9783333333333)"><rect y="0.5" width="6" height="5"/></g>
<g transform="translate(685.125,859.125) scale(4.9783333333333)"><rect y="0.5" width="6" height="5"/></g>
<g transform="translate(714.125,859.125) scale(4.9783333333333)"><rect y="0.5" width="6" height="5"/></g>
<g transform="translate(743.125,859.125) scale(4.9783333333333)"><rect y="0.5" width="6" height="5"/></g>
<g transform="translate(772.125,859.125) scale(4.9783333333333)"><rect y="0.5" width="6" height="5"/></g>
<g transform="translate(801.125,859.125) scale(4.9783333333333)"><path d="M3,5.5H0v-5h3c1.4,0,2.5,1.1,2.5,2.5v0C5.5,4.4,4.4,5.5,3,5.5z"/></g>
<g transform="translate(888.125,859.125) scale(4.9783333333333)"><circle cx="3" cy="3" r="2.5"/></g>
<g transform="translate(395.125,888.125) scale(4.9783333333333)"><circle cx="3" cy="3" r="2.5"/></g>
<g transform="translate(453.125,888.125) scale(4.9783333333333)"><circle cx="3" cy="3" r="2.5"/></g>
<g transform="translate(540.125,888.125) scale(4.9783333333333)"><path d="M6,5.5H3C1.6,5.5,0.5,4.4,0.5,3v0c0-1.4,1.1-2.5,2.5-2.5h3V5.5z"/></g>
<g transform="translate(569.125,888.125) scale(4.9783333333333)"><path d="M3,5.5H0v-5h3c1.4,0,2.5,1.1,2.5,2.5v0C5.5,4.4,4.4,5.5,3,5.5z"/></g>
<g transform="translate(627.125,888.125) scale(4.9783333333333)"><circle cx="3" cy="3" r="2.5"/></g>
<g transform="translate(801.125,888.125) scale(4.9783333333333)"><circle cx="3" cy="3" r="2.5"/></g>
<g transform="translate(888.125,888.125) scale(4.9783333333333)"><circle cx="3" cy="3" r="2.5"/></g>
<g transform="translate(366.125,917.125) scale(4.9783333333333)"><circle cx="3" cy="3" r="2.5"/></g>
<g transform="translate(424.125,917.125) scale(4.9783333333333)"><circle cx="3" cy="3" r="2.5"/></g>
<g transform="translate(511.125,917.125) scale(4.9783333333333)"><circle cx="3" cy="3" r="2.5"/></g>
<g transform="translate(627.125,917.125) scale(4.9783333333333)"><circle cx="3" cy="3" r="2.5"/></g>
<g transform="translate(743.125,917.125) scale(4.9783333333333)"><circle cx="3" cy="3" r="2.5"/></g>
<g transform="translate(801.125,917.125) scale(4.9783333333333)"><path d="M6,5.5H3C1.6,5.5,0.5,4.4,0.5,3v0c0-1.4,1.1-2.5,2.5-2.5h3V5.5z"/></g>
<g transform="translate(830.125,917.125) scale(4.9783333333333)"><rect y="0.5" width="6" height="5"/></g>
<g transform="translate(859.125,917.125) scale(4.9783333333333)"><path d="M3,5.5H0v-5h3c1.4,0,2.5,1.1,2.5,2.5v0C5.5,4.4,4.4,5.5,3,5.5z"/></g>
</g><g transform="translate(0,262.8125)"><g transform="translate(105.125,105.125)"  fill="#000000"><g transform="scale(14.5)"><path d="M0,0v9.6C0,12,2,14,4.4,14h5.1C12,14,14,12,14,9.6V4.4C14,2,12,0,9.6,0H0z M9.2,12H4.8C3.3,12,2,10.7,2,9.2V2h7.2 C10.7,2,12,3.3,12,4.8v4.4C12,10.7,10.7,12,9.2,12z"/></g></g>
<g transform="translate(743.125,105.125)"  fill="#000000"><g transform="scale(14.5) rotate(90 7 7)"><path d="M0,0v9.6C0,12,2,14,4.4,14h5.1C12,14,14,12,14,9.6V4.4C14,2,12,0,9.6,0H0z M9.2,12H4.8C3.3,12,2,10.7,2,9.2V2h7.2 C10.7,2,12,3.3,12,4.8v4.4C12,10.7,10.7,12,9.2,12z"/></g></g>
<g transform="translate(105.125,743.125)"  fill="#000000"><g transform="scale(14.5) rotate(-90 7 7)"><path d="M0,0v9.6C0,12,2,14,4.4,14h5.1C12,14,14,12,14,9.6V4.4C14,2,12,0,9.6,0H0z M9.2,12H4.8C3.3,12,2,10.7,2,9.2V2h7.2 C10.7,2,12,3.3,12,4.8v4.4C12,10.7,10.7,12,9.2,12z"/></g></g>
<g transform="translate(163.125,163.125)"  fill="#000000"><g transform="scale(14.5)"><path d="M6,1.7v2.7C6,5.2,5.2,6,4.3,6H1.7C0.7,6,0,5.3,0,4.3V1.7C0,0.8,0.8,0,1.7,0h2.7C5.3,0,6,0.7,6,1.7z"/></g></g>
<g transform="translate(801.125,163.125)"  fill="#000000"><g transform="scale(14.5)"><path d="M6,1.7v2.7C6,5.2,5.2,6,4.3,6H1.7C0.7,6,0,5.3,0,4.3V1.7C0,0.8,0.8,0,1.7,0h2.7C5.3,0,6,0.7,6,1.7z"/></g></g>
<g transform="translate(163.125,801.125)"  fill="#000000"><g transform="scale(14.5)"><path d="M6,1.7v2.7C6,5.2,5.2,6,4.3,6H1.7C0.7,6,0,5.3,0,4.3V1.7C0,0.8,0.8,0,1.7,0h2.7C5.3,0,6,0.7,6,1.7z"/></g></g></g>
<text fill="#000000" font-family="Arial, Helvetica, sans-serif" font-size="130px" text-anchor="middle" x="525.625" y="177.40625">SCAN ME</text></svg>